<svg xmlns="http://www.w3.org/2000/svg" viewBox="0 0 129.47 34.81"><path d="M121.79 26.79c4.67 0 7.68-2.47 7.68-6 0-4.26-4.34-4.71-7.26-5.09-2.66-.35-5.09-.61-5.09-2.93 0-1.94 1.71-3.38 4.59-3.38s4.6 1.44 4.72 3.3h2.5c-.07-3.23-2.77-5.69-7.18-5.69s-7.18 2.39-7.18 5.93c0 4.14 3.84 4.67 7.22 5.09 2.7.34 5.09.61 5.09 2.89 0 2-1.82 3.53-5.09 3.53s-5-1.44-5.09-3.46h-2.59c.12 3.34 3.04 5.81 7.68 5.81zm-11.44-.49V7.52h-2.54V26.3zm-1.29-22.42A1.9 1.9 0 00111 1.94a1.94 1.94 0 10-3.88 0 1.9 1.9 0 001.94 1.94zM96.33 26.79c4.67 0 7.68-2.47 7.68-6 0-4.26-4.34-4.71-7.26-5.09-2.66-.35-5.09-.61-5.09-2.93 0-1.94 1.71-3.38 4.59-3.38s4.6 1.44 4.72 3.3h2.5C103.4 9.46 100.7 7 96.29 7s-7.18 2.42-7.18 6c0 4.14 3.84 4.67 7.22 5.09 2.7.34 5.09.61 5.09 2.89 0 2-1.82 3.53-5.09 3.53S91.35 23 91.24 21h-2.59c.12 3.32 3.04 5.79 7.68 5.79zm-26.14-.49l6.65-8.17 6.72 8.17h3.16l-8-9.54 7.71-9.24h-3.1L77 15.39l-6.43-7.87h-3.16l7.68 9.24-8 9.54zm-15.66 8.51c5.24 0 9.39-2.66 9.39-9.2V7.52h-2.55v9.69c0 4.6-2.7 7.11-6.73 7.11s-6.72-2.47-6.72-7.11V7.52h-2.55v9.69c0 6.43 3.88 9.47 8.89 9.47a7.44 7.44 0 007.11-4.15v3.16c0 4.9-2.81 6.88-6.84 6.88-3.12 0-5.43-1.26-6.42-3.8h-2.55c1.18 4.06 4.71 6.04 8.97 6.04zM25.65 26.3v-9.81c0-4.63 2.66-7.1 6.73-7.1s6.72 2.47 6.72 7.1v9.81h2.55v-9.81c0-6.23-3.73-9.46-9.27-9.46s-9.28 3.23-9.28 9.46v9.81zm-8.17-10.83H2.7a7.08 7.08 0 017.41-6.08 7.06 7.06 0 017.37 6.08zm-7.37 11.32a9.61 9.61 0 009.23-5.74h-2.77a7 7 0 01-6.46 3.38 7.13 7.13 0 01-7.49-6.68h17.52v-.84c0-5.7-4.1-9.88-10-9.88S0 11.21 0 16.91s4.18 9.88 10.11 9.88z" fill="currentColor" /></svg>