<svg xmlns="http://www.w3.org/2000/svg" viewBox="0 0 138 35"><path d="M135 28H3a3 3 0 01-3-3V9a3 3 0 013-3h132a3 3 0 013 3v16a3 3 0 01-3 3zM3 8a1 1 0 00-1 1v16a1 1 0 001 1h132a1 1 0 001-1V9a1 1 0 00-1-1z" fill="currentColor" /><path d="M127.75 21a.76.76 0 00.76-.75.77.77 0 00-.76-.76H124v-1.77h3.13a.75.75 0 00.76-.75.77.77 0 00-.76-.76H124V14.5h3.65a.75.75 0 00.76-.75.76.76 0 00-.76-.76h-4.48a.84.84 0 00-.84.85v6.31a.83.83 0 00.84.85zm-13.69.07a.85.85 0 00.84-.84v-4.44l3.64 4.76a1 1 0 00.88.49.83.83 0 00.85-.84v-6.44a.84.84 0 00-1.67 0V18l-3.52-4.6a1 1 0 00-.87-.49h-.18a.83.83 0 00-.84.84v6.44a.83.83 0 00.87.88zm-3.79 0a.84.84 0 00.84-.85v-6.45a.85.85 0 00-1.69 0v6.45a.84.84 0 00.85.85zm-3.08-.07a.77.77 0 000-1.54h-3.34v-5.69a.83.83 0 00-.83-.84.84.84 0 00-.85.84v6.38a.84.84 0 00.83.85zm-13.32.07a.84.84 0 00.83-.84v-4.44l3.64 4.76a1 1 0 00.88.49h.06a.84.84 0 00.85-.84v-6.44a.84.84 0 00-1.68 0V18l-3.52-4.6a1 1 0 00-.87-.49h-.17a.84.84 0 00-.85.84v6.44a.84.84 0 00.83.88zm-6.75-1.49A2.5 2.5 0 0184.64 17a2.46 2.46 0 012.46-2.56A2.51 2.51 0 0189.59 17a2.46 2.46 0 01-2.47 2.58zm0 1.55A4.14 4.14 0 0091.36 17a4.25 4.25 0 00-8.49 0 4.09 4.09 0 004.23 4.13zm-9.82-.06a.83.83 0 00.86-.83.9.9 0 00-.23-.59L75.4 16.5l2.3-2.16a.84.84 0 00.3-.63.76.76 0 00-.78-.78.92.92 0 00-.7.33l-3.37 3.34v-2.83a.84.84 0 10-1.68 0v6.45a.84.84 0 101.68 0v-1.61l1.07-1 2.34 3.06a.88.88 0 00.72.4zm-11.75-1.49A2.5 2.5 0 0163.07 17a2.46 2.46 0 012.46-2.56A2.51 2.51 0 0168 17a2.46 2.46 0 01-2.45 2.58zm0 1.55A4.14 4.14 0 0069.79 17a4.25 4.25 0 00-8.49 0 4.09 4.09 0 004.23 4.13zm-8.7-4.23H55v-2.38h1.8c.89 0 1.44.41 1.44 1.18 0 .72-.53 1.2-1.41 1.2zm2.23 4.17a.8.8 0 00.81-.79.94.94 0 00-.28-.64l-1.31-1.58a2.42 2.42 0 001.64-2.43 2.47 2.47 0 00-.67-1.8 3.19 3.19 0 00-2.33-.83h-2.79a.84.84 0 00-.85.85v6.38a.84.84 0 101.68 0v-1.84h1.49l1.76 2.24a1 1 0 00.83.44zM49 17.68h-2.35l1.17-2.76zm2 3.39a.81.81 0 00.8-.82.75.75 0 00-.09-.34l-2.82-6.37a1 1 0 00-1-.67h-.1a1 1 0 00-1 .67L44 19.91a1 1 0 00-.1.36.79.79 0 00.78.8.82.82 0 00.78-.53l.54-1.37h3.58l.58 1.31a.86.86 0 00.84.59zm-14.86 0a.84.84 0 00.83-.84v-4.44l3.64 4.76a1.06 1.06 0 00.88.49h.06a.84.84 0 00.85-.84v-6.44a.84.84 0 00-1.68 0V18l-3.52-4.6a1 1 0 00-.86-.49h-.18a.84.84 0 00-.85.84v6.44a.84.84 0 00.82.88zm-6 .06a5.2 5.2 0 002.81-.81 1.16 1.16 0 00.6-1.07v-2a.85.85 0 00-.85-.85h-2.12a.74.74 0 00-.73.74.73.73 0 00.73.73h1.28v1.23a2.93 2.93 0 01-1.72.5 2.45 2.45 0 01-2.48-2.6A2.47 2.47 0 0130 14.41a2.83 2.83 0 011.8.59.87.87 0 00.52.18.84.84 0 00.49-1.52 4.39 4.39 0 00-2.73-.78A4.1 4.1 0 0025.89 17a4 4 0 004.2 4.13zm-8.15-3.45h-2.38l1.16-2.76zm2 3.39a.81.81 0 00.8-.82.75.75 0 00-.09-.34l-2.82-6.37a1 1 0 00-1-.67h-.1a1 1 0 00-1 .67l-2.83 6.37a1 1 0 00-.1.36.79.79 0 00.78.8.84.84 0 00.79-.53l.58-1.37h3.58l.58 1.31a.86.86 0 00.78.59zM12.55 16.9h-1.84v-2.38h1.81c.89 0 1.44.41 1.44 1.18.04.72-.53 1.2-1.41 1.2zm2.24 4.17a.79.79 0 00.8-.79 1 1 0 00-.27-.64L14 18.06a2.42 2.42 0 001.64-2.43 2.47 2.47 0 00-.67-1.8 3.2 3.2 0 00-2.31-.83H9.87a.85.85 0 00-.85.85v6.38a.85.85 0 101.69 0v-1.84h1.48L14 20.63a1 1 0 00.79.44z" fill="currentColor" /></svg>